<?xml version="1.0" encoding="UTF-8"?>
<!DOCTYPE svg PUBLIC "-//W3C//DTD SVG 1.1//EN" "http://www.w3.org/Graphics/SVG/1.1/DTD/svg11.dtd">
<!-- Creator: CorelDRAW 2021.5 -->
<svg xmlns="http://www.w3.org/2000/svg" xml:space="preserve" width="5.08754in" height="5.08754in" version="1.1" style="shape-rendering:geometricPrecision; text-rendering:geometricPrecision; image-rendering:optimizeQuality; fill-rule:evenodd; clip-rule:evenodd"
viewBox="0 0 6028.93 6028.93"
 xmlns:xlink="http://www.w3.org/1999/xlink"
 xmlns:xodm="http://www.corel.com/coreldraw/odm/2003">
 <defs>
  <style type="text/css">
   <![CDATA[
    .fil7 {fill:none}
    .fil4 {fill:#D49E44}
    .fil0 {fill:#D49E44}
    .fil2 {fill:#E49994}
    .fil3 {fill:#E49994}
    .fil5 {fill:#E5D1B8}
    .fil6 {fill:#FBF6F3}
    .fil1 {fill:#FBF6F3}
    .fil9 {fill:#201E1E;fill-rule:nonzero}
    .fil8 {fill:#201E1E;fill-rule:nonzero}
   ]]>
  </style>
 </defs>
 <g id="Layer_x0020_1">
  <metadata id="CorelCorpID_0Corel-Layer"/>
  <path class="fil0" d="M3014.47 0c1664.85,0 3014.47,1349.62 3014.47,3014.47 0,1664.85 -1349.62,3014.47 -3014.47,3014.47 -1664.85,0 -3014.47,-1349.62 -3014.47,-3014.47 0,-1664.85 1349.62,-3014.47 3014.47,-3014.47z"/>
  <path class="fil1" d="M3014.47 59.25c1632.12,0 2955.21,1323.09 2955.21,2955.21 0,1632.12 -1323.09,2955.21 -2955.21,2955.21 -1632.12,0 -2955.21,-1323.09 -2955.21,-2955.21 0,-1632.12 1323.09,-2955.21 2955.21,-2955.21z"/>
  <path class="fil2" d="M5013.99 3233.77c40.94,235.22 79.62,284.27 288.73,315.86 -163.86,28.12 -272.9,98.26 -294.36,316.89 -5.08,-208.91 -92.12,-279.56 -291.3,-316.89 185.87,-21.97 274.95,-67.53 296.93,-315.86z"/>
  <path class="fil2" d="M1198.35 2932.21c40.94,235.22 79.62,284.27 288.73,315.86 -163.86,28.12 -272.9,98.26 -294.36,316.89 -5.08,-208.91 -92.12,-279.56 -291.3,-316.89 185.87,-21.97 274.95,-67.53 296.93,-315.86z"/>
  <path class="fil3" d="M717.8 3730.57c73.28,0 132.68,59.41 132.68,132.68 0,73.28 -59.41,132.68 -132.68,132.68 -73.28,0 -132.68,-59.41 -132.68,-132.68 0,-73.28 59.41,-132.68 132.68,-132.68z"/>
  <path class="fil4" d="M2284.23 1732.29l1527.55 0c165.73,0 301.32,135.59 301.32,301.32l0 2059.07c0,165.72 -135.59,301.32 -301.32,301.32l-1527.55 0c-165.72,0 -301.32,-135.59 -301.32,-301.32l0 -2059.07c0,-165.72 135.6,-301.32 301.32,-301.32z"/>
  <path class="fil5" d="M3717.44 1769.29l94.34 0c145.38,0 264.32,118.94 264.32,264.32l0 2059.05c0,145.38 -118.94,264.32 -264.32,264.32l-94.34 0c93.43,-51.33 157.12,-150.74 157.12,-264.32l0 -2059.05c0,-113.58 -63.69,-212.99 -157.12,-264.32z"/>
  <path class="fil6" d="M2284.23 1769.29l1289 0c145.38,0 264.32,118.94 264.32,264.32l0 2059.05c0,145.38 -118.94,264.32 -264.32,264.32l-1289 0c-145.38,0 -264.32,-118.94 -264.32,-264.32l0 -2059.05c0,-145.38 118.94,-264.32 264.32,-264.32z"/>
  <path class="fil4" d="M2937.82 2736.28c183.99,0 333.15,149.15 333.15,333.14 0,183.99 -149.15,333.14 -333.15,333.14 -183.99,0 -333.14,-149.15 -333.14,-333.14 0,-183.99 149.15,-333.14 333.14,-333.14zm-10.12 -510.87l0 0c15.5,0 28.18,12.68 28.18,28.18l0 358.45c0,15.5 -12.68,28.18 -28.18,28.18l-0 0c-15.5,0 -28.18,-12.68 -28.18,-28.18l0 -358.45c0,-15.5 12.68,-28.18 28.18,-28.18zm0 1255.97l0 0c15.5,0 28.18,12.68 28.18,28.18l0 358.44c0,15.5 -12.68,28.18 -28.18,28.18l-0 0c-15.5,0 -28.18,-12.68 -28.18,-28.18l0 -358.44c0,-15.5 12.68,-28.18 28.18,-28.18zm384.57 -420.59l0 -0c0,-15.5 12.68,-28.18 28.18,-28.18l322.92 0c15.5,0 28.18,12.68 28.18,28.18l0 0c0,15.5 -12.68,28.18 -28.18,28.18l-322.92 0c-15.5,0 -28.18,-12.68 -28.18,-28.18zm-1148.43 0l0 -0c0,-15.5 12.68,-28.18 28.18,-28.18l322.92 0c15.5,0 28.18,12.68 28.18,28.18l0 0c0,15.5 -12.68,28.18 -28.18,28.18l-322.92 0c-15.5,0 -28.18,-12.68 -28.18,-28.18zm1096.9 -192.28l0 -0c-7.75,-13.43 -3.11,-30.75 10.31,-38.5l215.57 -124.46c13.42,-7.75 30.76,-3.1 38.5,10.32l0 0c7.74,13.41 3.09,30.75 -10.32,38.5l-215.56 124.46c-13.41,7.74 -30.75,3.11 -38.5,-10.32zm-930.47 537.2l0 0c-7.75,-13.43 -3.11,-30.75 10.32,-38.5l215.57 -124.46c13.42,-7.75 30.76,-3.1 38.5,10.32l0 0c7.74,13.41 3.09,30.76 -10.32,38.5l-215.57 124.46c-13.41,7.74 -30.75,3.11 -38.5,-10.32zm405.14 -677.97l-0 0c-13.43,7.75 -30.75,3.11 -38.5,-10.31l-124.46 -215.57c-7.75,-13.42 -3.1,-30.76 10.32,-38.5l0 -0c13.41,-7.74 30.75,-3.09 38.5,10.32l124.45 215.57c7.74,13.41 3.11,30.75 -10.31,38.5zm537.2 930.47l0 0c-13.43,7.75 -30.75,3.11 -38.5,-10.31l-124.46 -215.57c-7.75,-13.42 -3.1,-30.76 10.32,-38.5l0 -0c13.41,-7.74 30.76,-3.09 38.5,10.32l124.46 215.56c7.74,13.41 3.11,30.75 -10.32,38.5zm-152.63 -930.46l0 -0c-13.43,-7.76 -18.06,-25.07 -10.32,-38.5l124.46 -215.57c7.74,-13.42 25.08,-18.06 38.5,-10.32l0 0c13.41,7.74 18.06,25.08 10.31,38.5l-124.46 215.57c-7.74,13.41 -25.07,18.06 -38.5,10.32zm-537.21 930.46l0 0c-13.43,-7.75 -18.06,-25.07 -10.32,-38.5l124.46 -215.56c7.74,-13.42 25.08,-18.06 38.5,-10.32l0 -0c13.41,7.74 18.06,25.09 10.32,38.5l-124.46 215.57c-7.74,13.41 -25.08,18.06 -38.5,10.31zm11.87 -789.7l-0 0c-7.76,13.43 -25.07,18.06 -38.5,10.32l-215.57 -124.46c-13.42,-7.74 -18.06,-25.08 -10.32,-38.5l0 -0c7.74,-13.41 25.08,-18.06 38.5,-10.31l215.57 124.46c13.41,7.74 18.06,25.07 10.32,38.5zm930.46 537.21l0 0c-7.75,13.43 -25.07,18.06 -38.5,10.32l-215.56 -124.46c-13.42,-7.74 -18.06,-25.08 -10.32,-38.5l-0 0c7.74,-13.41 25.09,-18.06 38.5,-10.32l215.56 124.46c13.41,7.74 18.07,25.08 10.32,38.5z"/>
  <path class="fil7" d="M2977.33 896.41c1234.81,0 2235.82,1001.01 2235.82,2235.82 0,1234.81 -1001.01,2235.83 -2235.82,2235.83 -1234.81,0 -2235.83,-1001.01 -2235.83,-2235.83 0,-1234.81 1001.01,-2235.82 2235.83,-2235.82z"/>
  <path class="fil8" d="M1408.65 4981.62c-2.11,6.27 -2.89,11.13 -2.32,14.61 0.56,3.48 2.37,6.67 5.41,9.6l-3.65 3.81 -58.6 -56.34 3.66 -3.8c4.06,3.9 7.7,5.45 10.92,4.64 3.22,-0.81 5.54,-3.22 6.95,-7.23l44.03 -114.35 -108.07 -103.89 -102.53 44.21c-5.92,2.6 -9.45,6.9 -10.57,12.9 -1.13,5.99 1.6,12.16 8.2,18.5l-3.66 3.8 -48.33 -46.45 3.65 -3.81c5.85,6.11 12.89,9.95 21.13,11.53 8.24,1.58 16.31,0.55 24.2,-3.09l343.13 -148.26 3.05 2.93 -136.61 360.69zm9.58 -157.72l65.3 -171.51 -168.04 72.75 102.74 98.76zm523.05 165.7l-4.42 -2.88c4.46,-11.37 6.25,-22.18 5.37,-32.42 -0.89,-10.24 -7.23,-19.2 -19.02,-26.88l-60.59 -39.47 -186.13 285.7c-1.54,2.36 -2.44,4.71 -2.71,7.05 -0.27,2.35 -0.1,4.66 0.51,6.95 0.61,2.29 2.39,4.39 5.34,6.31l-2.88 4.42 -63.68 -41.49 2.88 -4.42c2.95,1.92 5.59,2.7 7.93,2.33 2.34,-0.37 4.38,-1.25 6.12,-2.63 2.04,-1.19 3.83,-2.97 5.36,-5.32l186.14 -285.7 -60.15 -39.19c-11.79,-7.68 -22.62,-9.91 -32.5,-6.69 -9.87,3.23 -18.96,9.28 -27.26,18.15l-4.86 -3.17 32.08 -39.57 236.16 153.86 -23.68 45.05zm489.15 306.72c13.28,11.36 25.8,22.14 37.58,32.35 11.77,10.21 21.78,20.85 30.03,31.9 8.25,11.06 13.92,22.86 17.01,35.4 3.08,12.55 2.46,26.62 -1.87,42.21 -8.67,31.19 -26.67,51.94 -54,62.24 -27.33,10.3 -61,9.9 -101.01,-1.22 -17.97,-4.99 -33.11,-11.3 -45.42,-18.92 -12.31,-7.62 -22.39,-15.35 -30.26,-23.2 -7.87,-7.84 -13.95,-15.2 -18.25,-22.05 -4.31,-6.86 -7.32,-11.8 -9.03,-14.84l11.14 -63.74 5.59 1.55c-0.72,20.98 1.09,39.11 5.44,54.38 4.33,15.27 10.53,28.13 18.58,38.58 8.05,10.46 17.67,18.88 28.87,25.27 11.18,6.4 23.39,11.43 36.61,15.11 26.45,7.35 48.92,6.65 67.42,-2.09 18.49,-8.74 30.48,-22.94 35.94,-42.61 3.3,-11.86 2.72,-23.26 -1.74,-34.17 -4.46,-10.92 -10.82,-21.18 -19.11,-30.79 -8.28,-9.61 -17.55,-18.66 -27.78,-27.17 -10.24,-8.51 -19.66,-16.32 -28.27,-23.47 -7.1,-5.99 -15.76,-13.24 -26,-21.74 -10.25,-8.51 -19.74,-18.36 -28.5,-29.56 -8.76,-11.2 -15.33,-23.7 -19.71,-37.52 -4.38,-13.81 -4.25,-29.03 0.36,-45.64 4.15,-14.92 10.67,-27.54 19.55,-37.85 8.89,-10.31 19.79,-18.33 32.71,-24.06 12.91,-5.73 27.38,-8.83 43.4,-9.31 16.02,-0.48 33.19,1.82 51.49,6.91 20.53,4.97 39.05,13.59 55.54,25.84 16.5,12.26 30.11,27.36 40.83,45.31l-10.91 64.9 -5.6 -1.55c1.89,-33.08 -3.53,-60.24 -16.25,-81.49 -12.72,-21.25 -34.34,-36.11 -64.86,-44.59 -11.87,-3.3 -23.25,-4.72 -34.15,-4.28 -10.9,0.44 -20.79,2.53 -29.68,6.27 -8.89,3.74 -16.5,9.11 -22.83,16.12 -6.33,7 -10.91,15.59 -13.74,25.77 -3.11,11.19 -3.19,21.66 -0.24,31.43 2.94,9.76 7.95,19.01 15.03,27.73 7.07,8.72 15.53,17.37 25.38,25.95 9.85,8.58 20.08,17.45 30.69,26.61zm462.8 -100.58c33.76,1.17 61.88,7.6 84.37,19.29 22.48,11.7 40.45,26.66 53.9,44.91 13.46,18.25 22.86,38.91 28.23,61.98 5.36,23.08 7.63,46.57 6.8,70.48 -0.83,23.92 -4.71,47.19 -11.66,69.84 -6.94,22.65 -17.76,42.61 -32.44,59.88 -14.68,17.27 -33.64,30.96 -56.87,41.08 -23.24,10.11 -51.74,14.58 -85.5,13.42 -33.76,-1.17 -61.88,-7.6 -84.36,-19.3 -22.48,-11.69 -40.45,-26.66 -53.91,-44.91 -13.45,-18.25 -22.86,-38.91 -28.22,-61.98 -5.37,-23.08 -7.63,-46.57 -6.81,-70.48 0.83,-23.92 4.72,-47.19 11.66,-69.84 6.95,-22.65 17.76,-42.61 32.44,-59.88 14.68,-17.28 33.64,-30.97 56.88,-41.08 23.24,-10.11 51.74,-14.58 85.5,-13.41zm-12.88 372.43c39.39,1.36 71.05,-13.12 94.99,-43.46 23.93,-30.33 36.93,-75.04 38.97,-134.12 2.04,-59.08 -7.83,-104.58 -29.61,-136.49 -21.79,-31.92 -52.37,-48.56 -91.76,-49.92 -19.7,-0.68 -37.51,2.76 -53.43,10.3 -15.93,7.55 -29.71,18.96 -41.32,34.22 -11.62,15.27 -20.81,34.05 -27.56,56.35 -6.76,22.3 -10.64,47.87 -11.64,76.71 -1,28.84 1.11,54.61 6.3,77.33 5.2,22.72 13.07,42.08 23.61,58.12 10.53,16.03 23.49,28.36 38.86,36.99 15.37,8.63 32.9,13.29 52.59,13.97zm645.85 -106.56l4.1 50.26 -247.43 46.59 -0.98 -5.19c3.46,-0.65 6,-1.93 7.6,-3.84 1.61,-1.92 2.57,-3.98 2.86,-6.18 0.65,-2.27 0.71,-4.79 0.19,-7.55l-60.75 -322.64c-0.52,-2.76 -1.53,-5.26 -3.02,-7.49 -1.02,-1.6 -2.62,-3 -4.82,-4.19 -2.19,-1.2 -5.02,-1.47 -8.48,-0.82l-0.98 -5.18 74.69 -14.07 0.98 5.18c-3.12,0.59 -5.47,1.84 -7.08,3.75 -1.61,1.92 -2.6,3.8 -2.96,5.66 -0.58,2.61 -0.61,5.31 -0.09,8.07l63.1 335.09 142.13 -26.76c13.83,-2.61 23.18,-8.58 28.04,-17.91 4.87,-9.33 7.26,-19.9 7.19,-31.7l5.7 -1.07zm500.18 -140.48c4.77,4.58 8.85,7.35 12.23,8.31 3.38,0.97 7.04,0.7 10.99,-0.82l1.89 4.93 -75.91 29.07 -1.89 -4.93c5.26,-2.02 8.21,-4.65 8.85,-7.91 0.63,-3.26 -0.56,-6.38 -3.59,-9.37l-84.75 -88.5 -139.99 53.6 -3.61 111.6c-0.16,6.47 2.23,11.49 7.18,15.05 4.95,3.57 11.69,3.72 20.23,0.45l1.89 4.93 -62.6 23.97 -1.89 -4.93c8.01,-2.69 14.49,-7.43 19.43,-14.22 4.93,-6.78 7.43,-14.53 7.5,-23.22l11.81 -373.6 3.94 -1.51 268.3 277.08zm-138.66 -75.77l-127.44 -132.07 -5.65 183.03 133.09 -50.96zm570.39 -192.84c6.84,2.87 14.2,2.54 22.08,-0.98l3.09 4.28 -43.22 31.21c-5.01,4.48 -10.98,5.54 -17.9,3.16l-188.56 -70.86 -48.35 34.92 91.28 125.5c1.65,2.28 3.52,3.97 5.61,5.07 1.81,1.3 3.96,2.02 6.45,2.17 2.5,0.15 5.03,-0.7 7.6,-2.56l3.09 4.28 -61.62 44.5 -3.09 -4.28c2.85,-2.06 4.6,-4.3 5.24,-6.71 0.64,-2.42 0.63,-4.69 -0.03,-6.81 -0.38,-2.33 -1.4,-4.63 -3.05,-6.91l-192.53 -266.59c-1.65,-2.29 -3.52,-3.98 -5.61,-5.07 -1.6,-1.01 -3.65,-1.6 -6.15,-1.74 -2.49,-0.15 -5.16,0.8 -8.02,2.86l-3.4 -4.7 89 -64.28c15.41,-11.13 31.4,-22.03 48,-32.71 16.59,-10.68 33.2,-18.34 49.83,-22.96 16.62,-4.62 32.93,-4.58 48.94,0.14 15.99,4.72 31.1,16.93 45.32,36.61 10.51,14.55 17.08,28.15 19.7,40.79 2.62,12.65 2.33,24.57 -0.86,35.78 -3.19,11.2 -8.59,21.61 -16.18,31.22 -7.6,9.61 -16.52,18.76 -26.74,27.45l180.08 67.23zm-221.32 -45.91c4.56,-3.29 10.74,-8.41 18.54,-15.34 7.8,-6.93 14.23,-15.6 19.32,-26 5.08,-10.39 7.18,-22.66 6.31,-36.79 -0.87,-14.13 -7.8,-30.18 -20.78,-48.15 -12.77,-17.68 -25.11,-29.5 -36.99,-35.46 -11.9,-5.95 -23.54,-8.39 -34.93,-7.33 -11.38,1.06 -22.38,4.77 -32.99,11.13 -10.6,6.35 -21.04,13.24 -31.31,20.66l-47.5 34.3 103.84 143.78 56.49 -40.8zm614.14 -330.86c6.27,2.11 11.13,2.89 14.61,2.32 3.47,-0.56 6.67,-2.37 9.6,-5.41l3.8 3.66 -56.33 58.6 -3.8 -3.66c3.9,-4.06 5.44,-7.7 4.64,-10.92 -0.81,-3.22 -3.22,-5.54 -7.23,-6.95l-114.36 -44.03 -103.88 108.07 44.21 102.53c2.61,5.92 6.9,9.45 12.9,10.57 6,1.13 12.16,-1.6 18.5,-8.2l3.81 3.66 -46.45 48.33 -3.81 -3.65c6.11,-5.85 9.95,-12.89 11.53,-21.13 1.58,-8.24 0.55,-16.31 -3.09,-24.2l-148.26 -343.13 2.93 -3.05 360.7 136.6zm-157.73 -9.58l-171.51 -65.3 72.75 168.04 98.76 -102.74z"/>
  <path class="fil9" d="M479.69 2211c-0.99,3.48 -0.91,6.52 0.22,9.14 1.13,2.61 2.55,4.58 4.26,5.89 1.99,1.82 4.53,3.16 7.61,4.04l360.43 102.35c3.09,0.88 5.95,1.07 8.59,0.56 2.53,-0.11 4.97,-0.98 7.31,-2.61 2.34,-1.63 4,-4.18 4.99,-7.66l5.79 1.65 -23.66 83.31 -5.79 -1.65c1.09,-3.85 1.08,-7.09 -0.06,-9.7 -1.13,-2.62 -2.74,-4.64 -4.84,-6.07 -1.99,-1.81 -4.52,-3.16 -7.61,-4.04l-350.59 -99.56 295.14 237.61 -2.63 9.25 -365.8 53.05 325.72 92.5c5.89,1.26 11.35,1.14 16.36,-0.35 4.51,-1.22 9.03,-3.9 13.53,-8.04 4.51,-4.14 8.08,-10.83 10.71,-20.09l6.36 1.81 -23.66 83.31 -6.36 -1.81c2.63,-9.26 3.11,-16.83 1.45,-22.72 -1.66,-5.89 -4.09,-10.54 -7.29,-13.95 -3.48,-3.91 -8.05,-6.88 -13.73,-8.91l-335.56 -95.29c-2.03,-0.16 -4.74,-0.2 -8.09,-0.11 -3.36,0.09 -6.87,1.08 -10.53,2.95 -3.66,1.88 -7.21,4.83 -10.64,8.86 -3.44,4.03 -6.2,9.7 -8.28,17.03l-6.36 -1.81 23 -81c1.32,-4.63 4.67,-7.63 10.06,-9.02l325.33 -47.03 -259.57 -208.75 17.82 -64.96 6.36 1.81zm623.66 -358.78c7.51,0.62 13.1,0.13 16.79,-1.45 3.69,-1.58 6.72,-4.46 9.12,-8.63l5.22 3 -46.17 80.29 -5.22 -3c3.2,-5.56 3.91,-10 2.13,-13.34 -1.78,-3.34 -5.09,-5.24 -9.9,-5.7l-138.56 -17.23 -85.14 148.07 77.09 101.21c4.51,5.83 10.23,8.54 17.17,8.14 6.94,-0.41 13,-5.12 18.2,-14.16l5.22 3 -38.08 66.22 -5.22 -3c5.14,-8.14 7.46,-16.99 6.94,-26.53 -0.53,-9.55 -3.88,-18.19 -10.08,-25.92l-258.32 -338.61 2.4 -4.18 436.4 51.82zm-177.03 32.79l-207.61 -25.03 126.67 165.8 80.94 -140.77zm215.37 -673.24c-2.49,2.61 -3.85,5.34 -4.06,8.18 -0.21,2.84 0.13,5.24 1.03,7.2 0.91,2.53 2.53,4.91 4.85,7.12l271.19 258.54c2.32,2.21 4.77,3.71 7.34,4.5 2.3,1.08 4.86,1.45 7.68,1.09 2.83,-0.35 5.49,-1.83 7.98,-4.45l4.36 4.15 -59.76 62.69 -4.36 -4.15c2.77,-2.9 4.26,-5.77 4.47,-8.62 0.22,-2.84 -0.27,-5.38 -1.46,-7.62 -0.91,-2.53 -2.52,-4.9 -4.85,-7.12l-131.89 -125.74 -128.24 134.51 131.89 125.74c2.32,2.21 4.77,3.71 7.34,4.5 2.3,1.08 4.86,1.45 7.68,1.09 2.82,-0.35 5.49,-1.83 7.97,-4.45l4.36 4.15 -59.76 62.69 -4.36 -4.15c2.77,-2.91 4.26,-5.78 4.47,-8.62 0.22,-2.84 -0.27,-5.38 -1.46,-7.62 -0.91,-2.53 -2.52,-4.9 -4.85,-7.12l-271.19 -258.54c-2.32,-2.21 -4.77,-3.71 -7.34,-4.5 -2,-0.8 -4.42,-1.03 -7.25,-0.68 -2.83,0.35 -5.62,1.98 -8.39,4.88l-4.79 -4.56 59.76 -62.69 4.79 4.57c-2.49,2.61 -3.85,5.34 -4.06,8.18 -0.22,2.84 0.13,5.24 1.02,7.2 0.91,2.53 2.53,4.91 4.85,7.12l132.33 126.16 128.24 -134.51 -132.33 -126.16c-2.32,-2.22 -4.77,-3.72 -7.34,-4.51 -2,-0.8 -4.41,-1.03 -7.25,-0.68 -2.83,0.35 -5.63,1.98 -8.39,4.88l-4.79 -4.56 59.76 -62.69 4.79 4.57zm233.4 -204.1l4.09 5.2c-2.84,2.23 -4.57,4.74 -5.19,7.52 -0.62,2.78 -0.62,5.21 -0.01,7.27 0.54,2.64 1.81,5.22 3.78,7.74l242.28 308.32c8.29,11.85 13.38,24.16 15.27,36.96 1.6,10.47 0.07,22.64 -4.6,36.5 -4.66,13.86 -15.82,27.73 -33.47,41.6 -6.94,5.45 -14.78,10.08 -23.51,13.88l-2.84 -8.47c4.53,-2.03 8.52,-4.41 11.99,-7.13 7.57,-5.94 12.27,-12.44 14.12,-19.51 1.85,-7.06 2.16,-13.81 0.93,-20.23 -1.23,-6.43 -3.39,-12.26 -6.47,-17.48 -3.08,-5.23 -5.62,-9.1 -7.6,-11.62l-250.09 -318.25c0,0 -0.63,-0.64 -1.91,-1.94 -1.27,-1.3 -2.99,-2.5 -5.14,-3.62 -2.15,-1.12 -4.59,-1.62 -7.32,-1.52 -2.72,0.11 -5.51,1.27 -8.34,3.5l-4.09 -5.2 68.1 -53.51zm365.05 -238.07c34.26,-17.55 65.82,-26.73 94.68,-27.55 28.86,-0.82 55.04,4.13 78.55,14.84 23.5,10.71 44.32,26.07 62.44,46.06 18.13,20 33.41,42.13 45.83,66.4 12.42,24.27 21.46,49.6 27.09,76 5.64,26.39 5.93,52.26 0.88,77.59 -5.04,25.33 -16.33,49.47 -33.86,72.41 -17.53,22.94 -43.43,43.19 -77.69,60.74 -34.26,17.55 -65.82,26.72 -94.68,27.54 -28.86,0.82 -55.04,-4.13 -78.55,-14.84 -23.5,-10.71 -44.32,-26.07 -62.44,-46.06 -18.13,-20 -33.4,-42.13 -45.83,-66.4 -12.43,-24.27 -21.46,-49.6 -27.1,-75.99 -5.63,-26.39 -5.93,-52.25 -0.88,-77.59 5.05,-25.33 16.33,-49.47 33.86,-72.41 17.53,-22.94 43.43,-43.18 77.69,-60.73zm193.55 377.92c39.97,-20.47 63.46,-52.44 70.49,-95.9 7.02,-43.46 -4.82,-95.17 -35.52,-155.12 -30.7,-59.95 -65.75,-99.78 -105.12,-119.49 -39.37,-19.7 -79.04,-19.32 -119.01,1.15 -19.98,10.24 -35.81,23.52 -47.49,39.87 -11.67,16.34 -19.07,35.33 -22.18,56.97 -3.11,21.64 -1.85,45.43 3.78,71.38 5.63,25.95 15.94,53.55 30.93,82.81 14.99,29.26 31.36,53.76 49.12,73.5 17.77,19.73 36.34,34.66 55.71,44.78 19.38,10.12 39.11,15.22 59.19,15.29 20.09,0.07 40.12,-5.01 60.1,-15.24zm569.85 -636.7l1.49 6.45c-9.37,2.16 -16.24,5.39 -20.6,9.69 -4.36,4.29 -7.26,8.67 -8.71,13.11 -1.74,4.93 -2.13,10.37 -1.17,16.32l87.64 379.74 -6.45 1.49 -352.79 -319.78 77.9 337.55c1.74,5.77 4.48,10.49 8.2,14.16 3.34,3.76 7.91,6.61 13.71,8.56 5.8,1.95 13.39,1.85 22.76,-0.31l1.49 6.45 -84.38 19.47 -1.49 -6.45c9.37,-2.16 16.24,-5.39 20.6,-9.69 4.35,-4.29 7.25,-8.67 8.7,-13.11 1.74,-4.93 2.14,-10.37 1.18,-16.32l-77.63 -336.37c-1.74,-5.77 -4.53,-10.68 -8.34,-14.74 -3.24,-3.36 -7.77,-6.02 -13.57,-7.98 -5.8,-1.95 -13.39,-1.85 -22.76,0.32l-1.35 -5.86 86.14 -19.88c4.3,-0.99 7.98,-0.2 11.04,2.39l282.92 255.05 -62.89 -272.5c-1.74,-5.77 -4.48,-10.49 -8.21,-14.16 -3.24,-3.36 -7.77,-6.03 -13.57,-7.98 -5.8,-1.95 -13.39,-1.85 -22.76,0.32l-1.49 -6.45 84.39 -19.47zm616.07 167.82l0.17 6.62c-4.01,0.1 -6.99,1.08 -8.95,2.93 -1.96,1.86 -3.52,3.8 -4.67,5.84 -1.13,2.43 -1.67,5.25 -1.59,8.46l3.2 126.26c-5.03,7.34 -12.05,15.04 -21.07,23.09 -9.02,8.05 -20.16,15.55 -33.42,22.51 -13.26,6.96 -28.55,12.85 -45.88,17.71 -17.32,4.85 -36.81,7.55 -58.45,8.1 -38.48,0.97 -71.5,-4.41 -99.07,-16.15 -27.57,-11.74 -50.43,-27.5 -68.58,-47.3 -18.15,-19.79 -31.66,-42.61 -40.53,-68.46 -8.88,-25.84 -13.66,-52.39 -14.35,-79.65 -0.69,-27.26 2.74,-54.02 10.3,-80.28 7.56,-26.26 19.9,-49.73 37.02,-70.42 17.12,-20.69 39.16,-37.59 66.1,-50.7 26.94,-13.11 59.65,-20.16 98.13,-21.13 22.44,-0.56 41.84,1.05 58.17,4.84 16.34,3.8 30.4,8.56 42.17,14.28 11.78,5.72 21.56,11.89 29.35,18.51 7.78,6.62 14.16,12.68 19.11,18.16l9.1 74.37 -6.01 0.15c-4.48,-18.34 -11.22,-35.01 -20.22,-50.02 -9,-15.01 -19.66,-27.88 -31.96,-38.6 -12.3,-10.72 -26.15,-18.89 -41.53,-24.52 -15.39,-5.63 -31.7,-8.23 -48.93,-7.79 -22.44,0.57 -43.57,5.71 -63.38,15.44 -19.81,9.73 -37.1,23.7 -51.88,41.92 -14.78,18.22 -26.36,40.27 -34.73,66.15 -8.37,25.88 -12.13,55.25 -11.3,88.12 0.83,32.87 6.08,62.01 15.75,87.44 9.67,25.43 22.34,46.76 38.02,64.01 15.68,17.25 33.65,30.33 53.93,39.25 20.28,8.91 41.64,13.08 64.09,12.51 18.04,-0.45 35.2,-4.1 51.47,-10.92 16.27,-6.83 30.67,-16.42 43.19,-28.77l-4.06 -160.53 -108.22 2.74 -0.24 -9.62 179.77 -4.55zm741.13 138.77c13.7,14.45 26.61,28.16 38.73,41.13 12.13,12.97 22.2,26.21 30.24,39.72 8.03,13.51 13.05,27.55 15.06,42.14 2.01,14.58 -0.38,30.46 -7.14,47.61 -13.53,34.32 -36.4,55.69 -68.59,64.11 -32.2,8.42 -70.3,3.96 -114.32,-13.39 -19.76,-7.8 -36.17,-16.75 -49.21,-26.85 -13.04,-10.1 -23.55,-20.06 -31.53,-29.88 -7.98,-9.83 -14,-18.88 -18.06,-27.17 -4.06,-8.28 -6.88,-14.24 -8.46,-17.88l20.2 -70.91 6.16 2.43c-3.31,23.7 -3.42,44.45 -0.31,62.27 3.1,17.82 8.59,33.13 16.47,45.93 7.88,12.81 17.78,23.5 29.7,32.08 11.92,8.58 25.15,15.74 39.69,21.47 29.09,11.47 54.64,13.36 76.64,5.66 22,-7.71 37.27,-22.38 45.8,-44.01 5.15,-13.05 5.85,-26.03 2.09,-38.93 -3.75,-12.9 -9.75,-25.29 -18,-37.16 -8.24,-11.87 -17.66,-23.24 -28.25,-34.1 -10.59,-10.86 -20.34,-20.84 -29.24,-29.96 -7.33,-7.63 -16.29,-16.88 -26.88,-27.73 -10.59,-10.86 -20.18,-23.15 -28.77,-36.88 -8.59,-13.74 -14.55,-28.69 -17.86,-44.86 -3.32,-16.18 -1.38,-33.41 5.83,-51.68 6.47,-16.41 15.36,-29.93 26.66,-40.56 11.3,-10.63 24.61,-18.41 39.92,-23.37 15.31,-4.95 32.08,-6.74 50.29,-5.38 18.21,1.36 37.38,6.01 57.53,13.95 22.68,8.08 42.63,20.04 59.87,35.89 17.24,15.85 30.86,34.58 40.87,56.2l-20.09 72.25 -6.15 -2.43c6.07,-37.26 3.17,-68.68 -8.72,-94.27 -11.89,-25.59 -34.62,-45.01 -68.19,-58.24 -13.06,-5.15 -25.78,-8.12 -38.18,-8.91 -12.41,-0.8 -23.86,0.4 -34.38,3.57 -10.52,3.18 -19.78,8.36 -27.79,15.55 -8,7.19 -14.22,16.38 -18.62,27.56 -4.86,12.31 -6.19,24.17 -4.01,35.59 2.17,11.42 6.75,22.49 13.73,33.21 6.97,10.73 15.54,21.53 25.68,32.43 10.14,10.89 20.68,22.16 31.6,33.8zm569.35 78.57c32.41,20.78 56.22,43.43 71.46,67.96 15.23,24.53 24.13,49.64 26.71,75.34 2.57,25.7 -0.22,51.42 -8.37,77.14 -8.16,25.73 -19.6,50.07 -34.31,73.02 -14.72,22.95 -32.06,43.51 -52.03,61.66 -19.97,18.15 -42.18,31.43 -66.6,39.82 -24.43,8.39 -50.97,10.78 -79.62,7.18 -28.65,-3.6 -59.18,-15.79 -91.58,-36.56 -32.4,-20.77 -56.22,-43.43 -71.45,-67.95 -15.23,-24.53 -24.13,-49.65 -26.71,-75.35 -2.58,-25.7 0.21,-51.41 8.37,-77.14 8.16,-25.73 19.6,-50.07 34.31,-73.02 14.72,-22.95 32.06,-43.51 52.03,-61.66 19.97,-18.15 42.17,-31.42 66.6,-39.81 24.43,-8.39 50.97,-10.79 79.61,-7.18 28.65,3.6 59.18,15.79 91.58,36.56zm-229.16 357.46c37.81,24.24 77.26,28.45 118.35,12.64 41.09,-15.81 79.81,-52.06 116.17,-108.77 36.35,-56.7 53.14,-107.03 50.35,-150.97 -2.79,-43.94 -23.08,-78.02 -60.89,-102.26 -18.9,-12.12 -38.35,-19.11 -58.35,-20.97 -20,-1.87 -40.13,1.3 -60.39,9.5 -20.26,8.21 -40.19,21.27 -59.77,39.19 -19.59,17.92 -38.25,40.73 -56,68.41 -17.74,27.68 -30.67,54.15 -38.78,79.44 -8.11,25.28 -11.66,48.84 -10.66,70.67 1,21.84 6.53,41.45 16.57,58.85 10.04,17.39 24.52,32.15 43.42,44.27zm432.56 367.12c13.28,13.93 28.13,24.42 44.55,31.48 16.42,7.05 33.13,11.07 50.12,12.05 16.99,0.97 33.76,-0.61 50.31,-4.76 16.55,-4.14 31.73,-10.58 45.55,-19.33l4.15 4.35 -58.96 46.24c-8.79,0.07 -18.78,-0.52 -29.95,-1.78 -11.17,-1.26 -23.08,-4.46 -35.72,-9.57 -12.64,-5.12 -25.94,-12.25 -39.9,-21.37 -13.96,-9.13 -28.41,-21.52 -43.35,-37.19 -26.56,-27.86 -44.75,-55.95 -54.56,-84.26 -9.82,-28.31 -13.48,-55.83 -11.01,-82.57 2.48,-26.74 10.32,-52.07 23.51,-76.01 13.19,-23.93 29.65,-45.31 49.38,-64.12 19.74,-18.82 41.87,-34.24 66.4,-46.27 24.53,-12.03 50.21,-18.65 77.04,-19.86 26.83,-1.2 54.15,3.77 81.95,14.93 27.81,11.16 55,30.67 81.56,58.52 15.49,16.25 27.52,31.92 36.1,47.01 8.57,15.09 14.97,29.21 19.19,42.36 4.22,13.14 6.7,25.04 7.44,35.7 0.74,10.65 0.74,19.66 -0,27.01l-49 56.68 -4.15 -4.35c10.58,-15.63 18.2,-32.04 22.87,-49.22 4.66,-17.19 6.56,-34.23 5.69,-51.12 -0.87,-16.89 -4.6,-33.15 -11.17,-48.76 -6.57,-15.61 -15.81,-29.66 -27.71,-42.14 -15.49,-16.25 -33.49,-28.45 -54,-36.6 -20.51,-8.15 -42.47,-11.58 -65.9,-10.3 -23.43,1.29 -47.54,7.52 -72.34,18.69 -24.8,11.18 -49.09,28.11 -72.89,50.79 -23.79,22.69 -41.86,46.15 -54.22,70.39 -12.34,24.23 -19.72,48.02 -22.12,71.36 -2.4,23.34 -0.02,45.45 7.14,66.32 7.16,20.87 18.48,39.43 33.98,55.68zm585.47 90.71c-1.95,-3.03 -4.28,-5 -6.98,-5.88 -2.71,-0.88 -5.13,-1.12 -7.25,-0.71 -2.67,0.28 -5.37,1.29 -8.06,3.02l-315.43 202.21c-2.7,1.73 -4.74,3.75 -6.12,6.07 -1.59,1.97 -2.55,4.38 -2.88,7.2 -0.33,2.83 0.48,5.77 2.43,8.8l-5.07 3.25 -46.74 -72.91 5.07 -3.25c2.16,3.38 4.6,5.51 7.31,6.39 2.71,0.89 5.29,1.02 7.75,0.39 2.67,-0.28 5.36,-1.29 8.06,-3.02l315.43 -202.21c2.7,-1.73 4.74,-3.76 6.12,-6.07 1.25,-1.76 2.04,-4.05 2.37,-6.88 0.33,-2.83 -0.59,-5.93 -2.75,-9.31l5.57 -3.57 46.74 72.91 -5.57 3.57zm-94.08 678.39c-4.89,5.73 -7.77,10.55 -8.65,14.46 -0.87,3.91 -0.31,8.06 1.67,12.45l-5.48 2.48 -38.15 -84.39 5.48 -2.48c2.65,5.85 5.84,9.02 9.59,9.53 3.75,0.51 7.22,-1.06 10.41,-4.71l94.98 -102.34 -70.36 -155.63 -127.18 3.37c-7.37,0.25 -12.91,3.31 -16.64,9.18 -3.73,5.86 -3.45,13.54 0.85,23.04l-5.49 2.48 -31.46 -69.6 5.49 -2.48c3.6,8.93 9.42,15.98 17.47,21.13 8.06,5.16 17.02,7.49 26.92,6.98l425.73 -11.63 1.99 4.39 -297.16 323.77zm76.88 -162.8l141.67 -153.81 -208.56 5.85 66.89 147.97zm53.97 602.11l-57.31 4.12 -50.43 -282.41 5.93 -1.06c0.7,3.95 2.14,6.85 4.3,8.7 2.16,1.86 4.5,2.96 7.01,3.33 2.58,0.76 5.45,0.86 8.61,0.3l368.25 -65.76c3.16,-0.56 6.01,-1.68 8.57,-3.36 1.83,-1.14 3.44,-2.95 4.83,-5.44 1.39,-2.49 1.73,-5.7 1.03,-9.65l5.92 -1.05 15.22 85.26 -5.92 1.05c-0.63,-3.55 -2.03,-6.26 -4.2,-8.11 -2.16,-1.85 -4.3,-3 -6.41,-3.44 -2.98,-0.69 -6.05,-0.75 -9.2,-0.19l-382.47 68.3 28.97 162.22c2.82,15.78 9.52,26.5 20.1,32.15 10.58,5.65 22.6,8.49 36.04,8.53l1.17 6.51z"/>
  <path class="fil7" d="M2977.33 1133.2c1104.04,0 1999.03,894.99 1999.03,1999.03 0,1104.03 -894.99,1999.03 -1999.03,1999.03 -1104.03,0 -1999.03,-894.99 -1999.03,-1999.03 0,-1104.04 894.99,-1999.03 1999.03,-1999.03z"/>
 </g>
</svg>
