<?xml version="1.0" encoding="UTF-8"?>
<!DOCTYPE svg PUBLIC "-//W3C//DTD SVG 1.1//EN" "http://www.w3.org/Graphics/SVG/1.1/DTD/svg11.dtd">
<!-- Creator: CorelDRAW 2021.5 -->
<svg xmlns="http://www.w3.org/2000/svg" xml:space="preserve" width="1.72698in" height="2.15787in" version="1.1" style="shape-rendering:geometricPrecision; text-rendering:geometricPrecision; image-rendering:optimizeQuality; fill-rule:evenodd; clip-rule:evenodd"
viewBox="0 0 1059.09 1323.34"
 xmlns:xlink="http://www.w3.org/1999/xlink"
 xmlns:xodm="http://www.corel.com/coreldraw/odm/2003">
 <defs>
  <style type="text/css">
   <![CDATA[
    .fil0 {fill:#D49E44}
    .fil1 {fill:#E5D1B8}
    .fil2 {fill:#FBF6F3}
   ]]>
  </style>
 </defs>
 <g id="Layer_x0020_1">
  <metadata id="CorelCorpID_0Corel-Layer"/>
  <rect class="fil0" width="1059.09" height="1323.34" rx="149.81" ry="149.81"/>
  <path class="fil1" d="M862.37 18.4l46.9 0c72.28,0 131.41,59.14 131.41,131.41l0 1023.72c0,72.28 -59.14,131.41 -131.41,131.41l-46.9 0c46.45,-25.52 78.12,-74.95 78.12,-131.41l0 -1023.72c0,-56.47 -31.67,-105.9 -78.12,-131.41z"/>
  <path class="fil2" d="M149.81 18.4l640.86 0c72.28,0 131.41,59.14 131.41,131.41l0 1023.72c0,72.28 -59.14,131.41 -131.41,131.41l-640.86 0c-72.28,0 -131.41,-59.14 -131.41,-131.41l0 -1023.72c0,-72.28 59.14,-131.41 131.41,-131.41z"/>
  <path class="fil0" d="M474.76 499.16c91.48,0 165.63,74.15 165.63,165.63 0,91.48 -74.15,165.63 -165.63,165.63 -91.48,0 -165.63,-74.15 -165.63,-165.63 0,-91.48 74.15,-165.63 165.63,-165.63zm-5.03 -253.99l0 0c7.71,0 14.01,6.3 14.01,14.01l0 178.21c0,7.71 -6.3,14.01 -14.01,14.01l-0 0c-7.71,0 -14.01,-6.3 -14.01,-14.01l0 -178.21c0,-7.71 6.3,-14.01 14.01,-14.01zm0 624.44l0 0c7.71,0 14.01,6.3 14.01,14.01l0 178.21c0,7.71 -6.3,14.01 -14.01,14.01l-0 0c-7.71,0 -14.01,-6.3 -14.01,-14.01l0 -178.21c0,-7.71 6.3,-14.01 14.01,-14.01zm191.2 -209.11l0 -0c0,-7.71 6.3,-14.01 14.01,-14.01l160.55 0c7.71,0 14.01,6.3 14.01,14.01l0 0c0,7.71 -6.3,14.01 -14.01,14.01l-160.55 0c-7.7,0 -14.01,-6.3 -14.01,-14.01zm-570.97 0l0 -0c0,-7.71 6.3,-14.01 14.01,-14.01l160.55 0c7.71,0 14.01,6.3 14.01,14.01l0 0c0,7.71 -6.3,14.01 -14.01,14.01l-160.55 0c-7.71,0 -14.01,-6.3 -14.01,-14.01zm545.35 -95.6l0 -0c-3.85,-6.68 -1.55,-15.29 5.13,-19.14l107.18 -61.88c6.67,-3.85 15.29,-1.54 19.14,5.13l0 0c3.85,6.67 1.54,15.29 -5.13,19.14l-107.17 61.88c-6.67,3.85 -15.29,1.55 -19.14,-5.13zm-462.61 267.08l0 0c-3.85,-6.68 -1.55,-15.29 5.13,-19.14l107.17 -61.88c6.67,-3.85 15.29,-1.54 19.14,5.13l0 0c3.85,6.67 1.54,15.29 -5.13,19.14l-107.17 61.88c-6.67,3.85 -15.29,1.55 -19.14,-5.13zm201.42 -337.07l-0 0c-6.68,3.85 -15.29,1.55 -19.14,-5.13l-61.88 -107.18c-3.85,-6.67 -1.54,-15.29 5.13,-19.14l0 -0c6.67,-3.85 15.29,-1.54 19.14,5.13l61.88 107.17c3.85,6.67 1.55,15.29 -5.13,19.14zm267.08 462.61l0 0c-6.68,3.85 -15.29,1.55 -19.14,-5.13l-61.88 -107.17c-3.85,-6.67 -1.54,-15.29 5.13,-19.14l0 -0c6.67,-3.85 15.29,-1.54 19.14,5.13l61.88 107.17c3.85,6.67 1.55,15.29 -5.13,19.14zm-75.88 -462.61l0 -0c-6.68,-3.86 -8.98,-12.47 -5.13,-19.14l61.88 -107.17c3.85,-6.67 12.47,-8.98 19.14,-5.13l0 0c6.67,3.85 8.98,12.47 5.13,19.14l-61.88 107.17c-3.85,6.67 -12.47,8.98 -19.14,5.13zm-267.09 462.61l0 0c-6.68,-3.86 -8.98,-12.47 -5.13,-19.14l61.88 -107.17c3.85,-6.67 12.47,-8.98 19.14,-5.13l0 -0c6.67,3.85 8.98,12.47 5.13,19.14l-61.88 107.17c-3.85,6.67 -12.47,8.98 -19.14,5.13zm5.9 -392.62l-0 0c-3.86,6.68 -12.47,8.98 -19.14,5.13l-107.17 -61.88c-6.67,-3.85 -8.98,-12.47 -5.13,-19.14l0 -0c3.85,-6.67 12.47,-8.98 19.14,-5.13l107.17 61.88c6.67,3.85 8.98,12.47 5.13,19.14zm462.61 267.09l0 0c-3.86,6.68 -12.47,8.98 -19.14,5.13l-107.17 -61.88c-6.67,-3.85 -8.98,-12.47 -5.13,-19.14l-0 0c3.85,-6.67 12.47,-8.98 19.14,-5.13l107.17 61.88c6.67,3.85 8.98,12.47 5.13,19.14z"/>
 </g>
</svg>
